BioRhyme-Light.ufo
<glyph name="plus" format="1">
  <advance width="447"/>
  <unicode hex="002B"/>
  <outline>
    <contour>
      <point x="236" y="68" type="line"/>
      <point x="236" y="402" type="line"/>
      <point x="211" y="402" type="line"/>
      <point x="211" y="68" type="line"/>
    </contour>
    <contour>
      <point x="387" y="224" type="line"/>
      <point x="387" y="247" type="line"/>
      <point x="60" y="247" type="line"/>
      <point x="60" y="224" type="line"/>
    </contour>
  </outline>
</glyph>
<glyph name="eight" format="1">
  <advance width="503"/>
  <unicode hex="0038"/>
  <outline>
    <contour>
      <point x="383" y="-10"/>
      <point x="453" y="46"/>
      <point x="453" y="112" type="curve" smooth="yes"/>
      <point x="453" y="168"/>
      <point x="414" y="213"/>
      <point x="252" y="245" type="curve" smooth="yes"/>
      <point x="140" y="267"/>
      <point x="95" y="305"/>
      <point x="95" y="356" type="curve" smooth="yes"/>
      <point x="95" y="413"/>
      <point x="161" y="457"/>
      <point x="242" y="457" type="curve" smooth="yes"/>
      <point x="343" y="457"/>
      <point x="408" y="398"/>
      <point x="408" y="339" type="curve" smooth="yes"/>
      <point x="408" y="285"/>
      <point x="362" y="246"/>
      <point x="326" y="219" type="curve"/>
      <point x="354" y="212" type="line"/>
      <point x="389" y="239"/>
      <point x="433" y="284"/>
      <point x="433" y="339" type="curve" smooth="yes"/>
      <point x="433" y="409"/>
      <point x="362" y="480"/>
      <point x="244" y="480" type="curve" smooth="yes"/>
      <point x="140" y="480"/>
      <point x="70" y="424"/>
      <point x="70" y="351" type="curve" smooth="yes"/>
      <point x="70" y="299"/>
      <point x="114" y="248"/>
      <point x="250" y="221" type="curve" smooth="yes"/>
      <point x="384" y="194"/>
      <point x="428" y="168"/>
      <point x="428" y="117" type="curve" smooth="yes"/>
      <point x="428" y="57"/>
      <point x="362" y="13"/>
      <point x="261" y="13" type="curve" smooth="yes"/>
      <point x="140" y="13"/>
      <point x="75" y="77"/>
      <point x="75" y="136" type="curve" smooth="yes"/>
      <point x="75" y="190"/>
      <point x="112" y="230"/>
      <point x="162" y="256" type="curve"/>
      <point x="137" y="263" type="line"/>
      <point x="88" y="237"/>
      <point x="50" y="191"/>
      <point x="50" y="136" type="curve" smooth="yes"/>
      <point x="50" y="66"/>
      <point x="121" y="-10"/>
      <point x="259" y="-10" type="curve" smooth="yes"/>
    </contour>
  </outline>
</glyph>
<glyph name="nine" format="1">
  <advance width="469"/>
  <unicode hex="0039"/>
  <outline>
    <contour>
      <point x="312" y="-10"/>
      <point x="419" y="89"/>
      <point x="419" y="254" type="curve" smooth="yes"/>
      <point x="419" y="404"/>
      <point x="327" y="481"/>
      <point x="218" y="481" type="curve" smooth="yes"/>
      <point x="128" y="481"/>
      <point x="40" y="421"/>
      <point x="40" y="327" type="curve" smooth="yes"/>
      <point x="40" y="231"/>
      <point x="123" y="195"/>
      <point x="202" y="194" type="curve" smooth="yes"/>
      <point x="272" y="193"/>
      <point x="333" y="215"/>
      <point x="401" y="257" type="curve"/>
      <point x="401" y="281" type="line"/>
      <point x="335" y="238"/>
      <point x="279" y="217"/>
      <point x="210" y="217" type="curve" smooth="yes"/>
      <point x="133" y="217"/>
      <point x="64" y="252"/>
      <point x="66" y="328" type="curve" smooth="yes"/>
      <point x="68" y="401"/>
      <point x="132" y="457"/>
      <point x="218" y="457" type="curve" smooth="yes"/>
      <point x="305" y="457"/>
      <point x="395" y="387"/>
      <point x="395" y="257" type="curve" smooth="yes"/>
      <point x="395" y="105"/>
      <point x="303" y="14"/>
      <point x="196" y="14" type="curve" smooth="yes"/>
      <point x="135" y="14"/>
      <point x="95" y="32"/>
      <point x="58" y="53" type="curve"/>
      <point x="48" y="32" type="line"/>
      <point x="85" y="11"/>
      <point x="133" y="-10"/>
      <point x="196" y="-10" type="curve" smooth="yes"/>
    </contour>
  </outline>
</glyph>
<glyph name="P" format="1">
  <advance width="553"/>
  <unicode hex="0050"/>
  <outline>
    <contour>
      <point x="327" y="214" type="line" smooth="yes"/>
      <point x="444" y="214"/>
      <point x="528" y="259"/>
      <point x="528" y="366" type="curve" smooth="yes"/>
      <point x="528" y="475"/>
      <point x="456" y="520"/>
      <point x="339" y="520" type="curve" smooth="yes"/>
      <point x="30" y="520" type="line"/>
      <point x="30" y="497" type="line"/>
      <point x="333" y="497" type="line" smooth="yes"/>
      <point x="435" y="497"/>
      <point x="503" y="465"/>
      <point x="503" y="365" type="curve" smooth="yes"/>
      <point x="503" y="273"/>
      <point x="421" y="240"/>
      <point x="322" y="238" type="curve" smooth="yes"/>
      <point x="160" y="235" type="line"/>
      <point x="160" y="212" type="line"/>
    </contour>
    <contour>
      <point x="286" y="0" type="line"/>
      <point x="286" y="23" type="line"/>
      <point x="30" y="23" type="line"/>
      <point x="30" y="0" type="line"/>
    </contour>
    <contour>
      <point x="168" y="13" type="line"/>
      <point x="168" y="507" type="line"/>
      <point x="143" y="507" type="line"/>
      <point x="143" y="13" type="line"/>
    </contour>
    <contour>
      <point x="273" y="490" type="move" name="top"/>
    </contour>
    <contour>
      <point x="273" y="0" type="move" name="bottom"/>
    </contour>
  </outline>
</glyph>
<glyph name="R" format="1">
  <advance width="617"/>
  <unicode hex="0052"/>
  <outline>
    <contour>
      <point x="352" y="241" type="line" smooth="yes"/>
      <point x="466" y="241"/>
      <point x="525" y="309"/>
      <point x="525" y="378" type="curve" smooth="yes"/>
      <point x="525" y="457"/>
      <point x="465" y="520"/>
      <point x="352" y="520" type="curve" smooth="yes"/>
      <point x="30" y="520" type="line"/>
      <point x="30" y="497" type="line"/>
      <point x="352" y="497" type="line" smooth="yes"/>
      <point x="451" y="497"/>
      <point x="500" y="441"/>
      <point x="500" y="378" type="curve" smooth="yes"/>
      <point x="500" y="317"/>
      <point x="448" y="262"/>
      <point x="352" y="262" type="curve" smooth="yes"/>
      <point x="163" y="262" type="line"/>
      <point x="163" y="241" type="line"/>
    </contour>
    <contour>
      <point x="281" y="0" type="line"/>
      <point x="281" y="23" type="line"/>
      <point x="30" y="22" type="line"/>
      <point x="30" y="-1" type="line"/>
    </contour>
    <contour>
      <point x="168" y="13" type="line"/>
      <point x="168" y="507" type="line"/>
      <point x="143" y="507" type="line"/>
      <point x="143" y="13" type="line"/>
    </contour>
    <contour>
      <point x="578" y="-10"/>
      <point x="607" y="44"/>
      <point x="607" y="105" type="curve" smooth="yes"/>
      <point x="607" y="126" type="line"/>
      <point x="582" y="126" type="line"/>
      <point x="582" y="105" type="line" smooth="yes"/>
      <point x="582" y="55"/>
      <point x="560" y="13"/>
      <point x="512" y="13" type="curve" smooth="yes"/>
      <point x="460" y="13"/>
      <point x="438" y="62"/>
      <point x="400" y="150" type="curve" smooth="yes"/>
      <point x="359" y="245"/>
      <point x="293" y="253"/>
      <point x="205" y="253" type="curve" smooth="yes"/>
      <point x="163" y="253" type="line"/>
      <point x="163" y="239" type="line"/>
      <point x="237" y="239" type="line" smooth="yes"/>
      <point x="301" y="239"/>
      <point x="349" y="213"/>
      <point x="379" y="137" type="curve" smooth="yes"/>
      <point x="415" y="45"/>
      <point x="446" y="-10"/>
      <point x="512" y="-10" type="curve" smooth="yes"/>
    </contour>
    <contour>
      <point x="295" y="520" type="move" name="top"/>
    </contour>
    <contour>
      <point x="335" y="0" type="move" name="bottom"/>
    </contour>
  </outline>
</glyph>
<glyph name="V" format="1">
  <advance width="646"/>
  <unicode hex="0056"/>
  <outline>
    <contour>
      <point x="0" y="520" type="line"/>
      <point x="0" y="497" type="line"/>
      <point x="227" y="497" type="line"/>
      <point x="227" y="520" type="line"/>
    </contour>
    <contour>
      <point x="409" y="520" type="line"/>
      <point x="409" y="497" type="line"/>
      <point x="646" y="497" type="line"/>
      <point x="646" y="520" type="line"/>
    </contour>
    <contour>
      <point x="327" y="-10" type="line"/>
      <point x="552" y="507" type="line"/>
      <point x="523" y="507" type="line"/>
      <point x="324" y="40" type="line"/>
      <point x="124" y="507" type="line"/>
      <point x="95" y="507" type="line"/>
      <point x="319" y="-10" type="line"/>
    </contour>
    <contour>
      <point x="323" y="490" type="move" name="top"/>
    </contour>
    <contour>
      <point x="323" y="0" type="move" name="bottom"/>
    </contour>
  </outline>
</glyph>
<glyph name="c" format="1">
  <advance width="430"/>
  <unicode hex="0063"/>
  <outline>
    <contour>
      <point x="302" y="-10"/>
      <point x="347" y="23"/>
      <point x="383" y="60" type="curve"/>
      <point x="367" y="77" type="line"/>
      <point x="334" y="42"/>
      <point x="292" y="12"/>
      <point x="226" y="13" type="curve" smooth="yes"/>
      <point x="151" y="14"/>
      <point x="70" y="74"/>
      <point x="70" y="174" type="curve" smooth="yes"/>
      <point x="70" y="273"/>
      <point x="137" y="344"/>
      <point x="226" y="344" type="curve" smooth="yes"/>
      <point x="298" y="344"/>
      <point x="346" y="309"/>
      <point x="373" y="237" type="curve"/>
      <point x="385" y="238" type="line"/>
      <point x="385" y="357" type="line"/>
      <point x="362" y="357" type="line"/>
      <point x="362" y="271" type="line"/>
      <point x="374" y="264" type="line"/>
      <point x="352" y="325"/>
      <point x="300" y="366"/>
      <point x="226" y="367" type="curve" smooth="yes"/>
      <point x="125" y="368"/>
      <point x="45" y="285"/>
      <point x="45" y="174" type="curve" smooth="yes"/>
      <point x="45" y="54"/>
      <point x="141" y="-10"/>
      <point x="226" y="-10" type="curve" smooth="yes"/>
    </contour>
    <contour>
      <point x="227" y="367" type="move" name="top"/>
    </contour>
    <contour>
      <point x="216" y="-10" type="move" name="bottom"/>
    </contour>
  </outline>
</glyph>
<glyph name="g" format="1">
  <advance width="431"/>
  <unicode hex="0067"/>
  <outline>
    <contour>
      <point x="311" y="-169"/>
      <point x="421" y="-115"/>
      <point x="421" y="-24" type="curve" smooth="yes"/>
      <point x="421" y="27"/>
      <point x="381" y="55"/>
      <point x="329" y="55" type="curve" smooth="yes"/>
      <point x="264" y="55"/>
      <point x="200" y="22"/>
      <point x="138" y="22" type="curve" smooth="yes"/>
      <point x="79" y="22"/>
      <point x="58" y="51"/>
      <point x="58" y="82" type="curve" smooth="yes"/>
      <point x="58" y="119"/>
      <point x="88" y="145"/>
      <point x="128" y="164" type="curve"/>
      <point x="107" y="173" type="line"/>
      <point x="68" y="154"/>
      <point x="33" y="121"/>
      <point x="33" y="76" type="curve" smooth="yes"/>
      <point x="33" y="41"/>
      <point x="60" y="-2"/>
      <point x="138" y="-2" type="curve" smooth="yes"/>
      <point x="203" y="-2"/>
      <point x="260" y="32"/>
      <point x="324" y="32" type="curve" smooth="yes"/>
      <point x="365" y="32"/>
      <point x="396" y="13"/>
      <point x="396" y="-24" type="curve" smooth="yes"/>
      <point x="396" y="-101"/>
      <point x="301" y="-147"/>
      <point x="203" y="-147" type="curve" smooth="yes"/>
      <point x="114" y="-147"/>
      <point x="50" y="-109"/>
      <point x="50" y="-55" type="curve" smooth="yes"/>
      <point x="50" y="-18"/>
      <point x="77" y="10"/>
      <point x="109" y="21" type="curve"/>
      <point x="91" y="30" type="line"/>
      <point x="64" y="20"/>
      <point x="25" y="-11"/>
      <point x="25" y="-58" type="curve" smooth="yes"/>
      <point x="25" y="-124"/>
      <point x="99" y="-169"/>
      <point x="200" y="-169" type="curve" smooth="yes"/>
    </contour>
    <contour>
      <point x="302" y="108"/>
      <point x="369" y="155"/>
      <point x="369" y="238" type="curve" smooth="yes"/>
      <point x="369" y="322"/>
      <point x="292" y="367"/>
      <point x="221" y="367" type="curve" smooth="yes"/>
      <point x="150" y="367"/>
      <point x="73" y="321"/>
      <point x="73" y="237" type="curve" smooth="yes"/>
      <point x="73" y="153"/>
      <point x="149" y="108"/>
      <point x="221" y="108" type="curve" smooth="yes"/>
    </contour>
    <contour>
      <point x="162" y="131"/>
      <point x="98" y="165"/>
      <point x="98" y="237" type="curve" smooth="yes"/>
      <point x="98" y="307"/>
      <point x="163" y="344"/>
      <point x="221" y="344" type="curve" smooth="yes"/>
      <point x="279" y="344"/>
      <point x="344" y="310"/>
      <point x="344" y="238" type="curve" smooth="yes"/>
      <point x="344" y="168"/>
      <point x="289" y="131"/>
      <point x="221" y="131" type="curve" smooth="yes"/>
    </contour>
    <contour>
      <point x="340" y="380"/>
      <point x="366" y="403"/>
      <point x="418" y="406" type="curve"/>
      <point x="418" y="431" type="line"/>
      <point x="358" y="428"/>
      <point x="322" y="391"/>
      <point x="303" y="335" type="curve"/>
      <point x="317" y="319" type="line"/>
    </contour>
    <contour>
      <point x="222" y="387" type="move" name="top"/>
    </contour>
    <contour>
      <point x="222" y="-169" type="move" name="bottom"/>
    </contour>
  </outline>
</glyph>
<glyph name="k" format="1">
  <advance width="532"/>
  <unicode hex="006B"/>
  <outline>
    <contour>
      <point x="354" y="132"/>
      <point x="421" y="181"/>
      <point x="421" y="253" type="curve" smooth="yes"/>
      <point x="421" y="321"/>
      <point x="369" y="361"/>
      <point x="301" y="361" type="curve" smooth="yes"/>
      <point x="237" y="361"/>
      <point x="170" y="322"/>
      <point x="120" y="274" type="curve"/>
      <point x="120" y="251" type="line"/>
      <point x="171" y="299"/>
      <point x="237" y="338"/>
      <point x="301" y="338" type="curve" smooth="yes"/>
      <point x="357" y="338"/>
      <point x="396" y="307"/>
      <point x="396" y="253" type="curve" smooth="yes"/>
      <point x="396" y="188"/>
      <point x="331" y="154"/>
      <point x="267" y="155" type="curve" smooth="yes"/>
      <point x="220" y="156"/>
      <point x="171" y="170"/>
      <point x="120" y="195" type="curve"/>
      <point x="120" y="172" type="line"/>
      <point x="167" y="149"/>
      <point x="218" y="132"/>
      <point x="271" y="132" type="curve" smooth="yes"/>
    </contour>
    <contour>
      <point x="229" y="0" type="line"/>
      <point x="229" y="23" type="line"/>
      <point x="20" y="23" type="line"/>
      <point x="20" y="0" type="line"/>
    </contour>
    <contour>
      <point x="137" y="0" type="line"/>
      <point x="137" y="520" type="line"/>
      <point x="112" y="520" type="line"/>
      <point x="112" y="0" type="line"/>
    </contour>
    <contour>
      <point x="445" y="-10"/>
      <point x="473" y="12"/>
      <point x="491" y="34" type="curve"/>
      <point x="477" y="48" type="line"/>
      <point x="461" y="30"/>
      <point x="441" y="12"/>
      <point x="406" y="12" type="curve" smooth="yes"/>
      <point x="366" y="12"/>
      <point x="324" y="43"/>
      <point x="302" y="149" type="curve"/>
      <point x="279" y="149" type="line"/>
      <point x="299" y="40"/>
      <point x="347" y="-10"/>
      <point x="406" y="-10" type="curve" smooth="yes"/>
    </contour>
    <contour>
      <point x="137" y="497" type="line"/>
      <point x="137" y="520" type="line"/>
      <point x="20" y="520" type="line"/>
      <point x="20" y="497" type="line"/>
    </contour>
    <contour>
      <point x="276" y="387" type="move" name="top"/>
    </contour>
    <contour>
      <point x="276" y="0" type="move" name="bottom"/>
    </contour>
  </outline>
</glyph>
<glyph name="m" format="1">
  <advance width="785"/>
  <unicode hex="006D"/>
  <outline>
    <contour>
      <point x="142" y="334" type="line"/>
      <point x="142" y="357" type="line"/>
      <point x="25" y="357" type="line"/>
      <point x="25" y="334" type="line"/>
    </contour>
    <contour>
      <point x="142" y="0" type="line"/>
      <point x="142" y="357" type="line"/>
      <point x="117" y="357" type="line"/>
      <point x="117" y="0" type="line"/>
    </contour>
    <contour>
      <point x="217" y="0" type="line"/>
      <point x="217" y="23" type="line"/>
      <point x="25" y="23" type="line"/>
      <point x="25" y="0" type="line"/>
    </contour>
    <contour>
      <point x="414" y="0" type="line"/>
      <point x="414" y="239" type="line" smooth="yes"/>
      <point x="414" y="324"/>
      <point x="372" y="367"/>
      <point x="308" y="367" type="curve" smooth="yes"/>
      <point x="239" y="367"/>
      <point x="179" y="317"/>
      <point x="128" y="254" type="curve"/>
      <point x="128" y="231" type="line"/>
      <point x="180" y="296"/>
      <point x="245" y="344"/>
      <point x="303" y="344" type="curve" smooth="yes"/>
      <point x="362" y="344"/>
      <point x="389" y="304"/>
      <point x="389" y="234" type="curve" smooth="yes"/>
      <point x="389" y="0" type="line"/>
    </contour>
    <contour>
      <point x="489" y="0" type="line"/>
      <point x="489" y="23" type="line"/>
      <point x="314" y="23" type="line"/>
      <point x="314" y="0" type="line"/>
    </contour>
    <contour>
      <point x="686" y="0" type="line"/>
      <point x="686" y="239" type="line" smooth="yes"/>
      <point x="686" y="324"/>
      <point x="644" y="367"/>
      <point x="580" y="367" type="curve" smooth="yes"/>
      <point x="511" y="367"/>
      <point x="451" y="317"/>
      <point x="400" y="254" type="curve"/>
      <point x="400" y="231" type="line"/>
      <point x="452" y="296"/>
      <point x="517" y="344"/>
      <point x="575" y="344" type="curve" smooth="yes"/>
      <point x="634" y="344"/>
      <point x="661" y="304"/>
      <point x="661" y="234" type="curve" smooth="yes"/>
      <point x="661" y="0" type="line"/>
    </contour>
    <contour>
      <point x="768" y="0" type="line"/>
      <point x="768" y="23" type="line"/>
      <point x="586" y="23" type="line"/>
      <point x="586" y="0" type="line"/>
    </contour>
    <contour>
      <point x="400" y="387" type="move" name="top"/>
    </contour>
    <contour>
      <point x="400" y="0" type="move" name="bottom"/>
    </contour>
  </outline>
</glyph>
<glyph name="yen" format="1">
  <advance width="610"/>
  <unicode hex="00A5"/>
  <outline>
    <contour>
      <point x="247" y="447" type="line"/>
      <point x="247" y="470" type="line"/>
      <point x="10" y="470" type="line"/>
      <point x="10" y="447" type="line"/>
    </contour>
    <contour>
      <point x="600" y="447" type="line"/>
      <point x="600" y="470" type="line"/>
      <point x="364" y="470" type="line"/>
      <point x="364" y="447" type="line"/>
    </contour>
    <contour>
      <point x="313" y="151" type="line"/>
      <point x="488" y="450" type="line"/>
      <point x="473" y="466" type="line"/>
      <point x="300" y="169" type="line"/>
      <point x="312" y="169" type="line"/>
      <point x="136" y="468" type="line"/>
      <point x="121" y="450" type="line"/>
      <point x="297" y="151" type="line"/>
    </contour>
    <contour>
      <point x="317" y="300" type="line"/>
      <point x="317" y="322" type="line"/>
      <point x="66" y="322" type="line"/>
      <point x="66" y="300" type="line"/>
    </contour>
    <contour>
      <point x="547" y="300" type="line"/>
      <point x="547" y="322" type="line"/>
      <point x="297" y="322" type="line"/>
      <point x="297" y="300" type="line"/>
    </contour>
    <contour>
      <point x="547" y="150" type="line"/>
      <point x="547" y="172" type="line"/>
      <point x="66" y="172" type="line"/>
      <point x="66" y="150" type="line"/>
    </contour>
    <contour>
      <point x="318" y="0" type="line"/>
      <point x="318" y="161" type="line"/>
      <point x="293" y="161" type="line"/>
      <point x="293" y="0" type="line"/>
    </contour>
    <contour>
      <point x="431" y="0" type="line"/>
      <point x="431" y="23" type="line"/>
      <point x="180" y="23" type="line"/>
      <point x="180" y="0" type="line"/>
    </contour>
  </outline>
</glyph>
<glyph name="ordfeminine" format="1">
  <advance width="334"/>
  <unicode hex="00AA"/>
  <outline>
    <contour>
      <point x="288" y="304"/>
      <point x="304" y="324"/>
      <point x="304" y="348" type="curve" smooth="yes"/>
      <point x="304" y="359" type="line"/>
      <point x="283" y="359" type="line"/>
      <point x="283" y="348" type="line" smooth="yes"/>
      <point x="283" y="335"/>
      <point x="276" y="325"/>
      <point x="262" y="325" type="curve" smooth="yes"/>
      <point x="250" y="325"/>
      <point x="240" y="334"/>
      <point x="240" y="351" type="curve" smooth="yes"/>
      <point x="240" y="458" type="line"/>
      <point x="240" y="501"/>
      <point x="209" y="529"/>
      <point x="150" y="529" type="curve" smooth="yes"/>
      <point x="120" y="529"/>
      <point x="90" y="523"/>
      <point x="56" y="511" type="curve"/>
      <point x="62" y="490" type="line"/>
      <point x="95" y="502"/>
      <point x="121" y="508"/>
      <point x="150" y="508" type="curve" smooth="yes"/>
      <point x="199" y="508"/>
      <point x="217" y="486"/>
      <point x="217" y="458" type="curve"/>
      <point x="217" y="351" type="line" smooth="yes"/>
      <point x="217" y="322"/>
      <point x="234" y="304"/>
      <point x="263" y="304" type="curve" smooth="yes"/>
    </contour>
    <contour>
      <point x="156" y="301"/>
      <point x="197" y="318"/>
      <point x="227" y="352" type="curve"/>
      <point x="227" y="370" type="line"/>
      <point x="197" y="339"/>
      <point x="159" y="322"/>
      <point x="127" y="322" type="curve" smooth="yes"/>
      <point x="99" y="322"/>
      <point x="71" y="335"/>
      <point x="71" y="369" type="curve" smooth="yes"/>
      <point x="71" y="401"/>
      <point x="99" y="418"/>
      <point x="137" y="418" type="curve" smooth="yes"/>
      <point x="169" y="418"/>
      <point x="198" y="413"/>
      <point x="227" y="401" type="curve"/>
      <point x="227" y="419" type="line"/>
      <point x="198" y="430"/>
      <point x="171" y="439"/>
      <point x="133" y="439" type="curve" smooth="yes"/>
      <point x="89" y="439"/>
      <point x="48" y="416"/>
      <point x="48" y="369" type="curve" smooth="yes"/>
      <point x="48" y="320"/>
      <point x="90" y="301"/>
      <point x="125" y="301" type="curve" smooth="yes"/>
    </contour>
    <contour>
      <point x="45" y="212" type="line"/>
      <point x="282" y="212" type="line"/>
      <point x="282" y="233" type="line"/>
      <point x="45" y="233" type="line"/>
    </contour>
  </outline>
</glyph>
<glyph name="eth" format="1">
  <advance width="444"/>
  <unicode hex="00F0"/>
  <outline>
    <contour>
      <point x="154" y="378" type="line"/>
      <point x="171" y="366" type="line"/>
      <point x="317" y="582" type="line"/>
      <point x="301" y="595" type="line"/>
    </contour>
    <contour>
      <point x="321" y="-20"/>
      <point x="409" y="72"/>
      <point x="409" y="214" type="curve" smooth="yes"/>
      <point x="409" y="397"/>
      <point x="284" y="531"/>
      <point x="95" y="572" type="curve"/>
      <point x="88" y="548" type="line"/>
      <point x="276" y="508"/>
      <point x="385" y="380"/>
      <point x="385" y="214" type="curve" smooth="yes"/>
      <point x="385" y="84"/>
      <point x="304" y="4"/>
      <point x="205" y="4" type="curve" smooth="yes"/>
      <point x="114" y="4"/>
      <point x="50" y="66"/>
      <point x="50" y="146" type="curve" smooth="yes"/>
      <point x="50" y="228"/>
      <point x="112" y="292"/>
      <point x="202" y="292" type="curve" smooth="yes"/>
      <point x="283" y="292"/>
      <point x="350" y="252"/>
      <point x="393" y="194" type="curve"/>
      <point x="393" y="219" type="line"/>
      <point x="351" y="274"/>
      <point x="283" y="315"/>
      <point x="202" y="315" type="curve" smooth="yes"/>
      <point x="107" y="315"/>
      <point x="25" y="249"/>
      <point x="25" y="145" type="curve" smooth="yes"/>
      <point x="25" y="45"/>
      <point x="108" y="-20"/>
      <point x="205" y="-20" type="curve" smooth="yes"/>
    </contour>
  </outline>
</glyph>
<glyph name="uni02B9" format="1">
  <advance width="235"/>
  <unicode hex="02B9"/>
  <outline>
    <contour>
      <point x="90" y="358" type="line"/>
      <point x="104" y="355" type="line"/>
      <point x="160" y="549" type="line"/>
      <point x="130" y="556" type="line"/>
    </contour>
  </outline>
</glyph>
<glyph name="uni0328" format="1">
  <advance width="273"/>
  <unicode hex="0328"/>
  <outline>
    <contour>
      <point x="123" y="0" type="line"/>
      <point x="85" y="-22"/>
      <point x="55" y="-57"/>
      <point x="55" y="-97" type="curve" smooth="yes"/>
      <point x="55" y="-144"/>
      <point x="94" y="-174"/>
      <point x="144" y="-174" type="curve" smooth="yes"/>
      <point x="177" y="-174"/>
      <point x="198" y="-164"/>
      <point x="217" y="-153" type="curve"/>
      <point x="208" y="-132" type="line"/>
      <point x="190" y="-143"/>
      <point x="170" y="-151"/>
      <point x="144" y="-151" type="curve" smooth="yes"/>
      <point x="107" y="-151"/>
      <point x="80" y="-128"/>
      <point x="80" y="-94" type="curve" smooth="yes"/>
      <point x="80" y="-57"/>
      <point x="107" y="-31"/>
      <point x="138" y="-8" type="curve"/>
    </contour>
    <contour>
      <point x="138" y="-8" type="move" name="_ogonek"/>
    </contour>
  </outline>
</glyph>
<glyph name="uni0414" format="1">
  <advance width="535"/>
  <unicode hex="0414"/>
  <outline>
    <contour>
      <point x="500" y="13" type="line"/>
      <point x="316" y="510" type="line" smooth="yes"/>
      <point x="218" y="510" type="line"/>
      <point x="35" y="15" type="line"/>
      <point x="62" y="15" type="line"/>
      <point x="239" y="502" type="line"/>
      <point x="296" y="502" type="line"/>
      <point x="473" y="13" type="line"/>
    </contour>
    <contour>
      <point x="62" y="-108" type="line"/>
      <point x="62" y="15" type="line"/>
      <point x="35" y="15" type="line"/>
      <point x="47" y="-108" type="line"/>
    </contour>
    <contour>
      <point x="486" y="0" type="line"/>
      <point x="486" y="22" type="line"/>
      <point x="50" y="22" type="line"/>
      <point x="50" y="0" type="line"/>
    </contour>
    <contour>
      <point x="488" y="-110" type="line"/>
      <point x="500" y="13" type="line"/>
      <point x="473" y="13" type="line"/>
      <point x="473" y="-110" type="line"/>
    </contour>
    <contour>
      <point x="435" y="497" type="line"/>
      <point x="435" y="520" type="line"/>
      <point x="99" y="520" type="line"/>
      <point x="99" y="497" type="line"/>
    </contour>
  </outline>
</glyph>
<glyph name="uni0424" format="1">
  <advance width="616"/>
  <unicode hex="0424"/>
  <outline>
    <contour>
      <point x="449" y="33"/>
      <point x="591" y="101"/>
      <point x="591" y="236" type="curve" smooth="yes"/>
      <point x="591" y="374"/>
      <point x="449" y="443"/>
      <point x="308" y="443" type="curve" smooth="yes"/>
      <point x="167" y="443"/>
      <point x="25" y="374"/>
      <point x="25" y="236" type="curve" smooth="yes"/>
      <point x="25" y="101"/>
      <point x="167" y="33"/>
      <point x="308" y="33" type="curve" smooth="yes"/>
    </contour>
    <contour>
      <point x="434" y="-85" type="line" smooth="yes"/>
      <point x="434" y="-62" type="line" smooth="yes"/>
      <point x="183" y="-62" type="line" smooth="yes"/>
      <point x="183" y="-85" type="line" smooth="yes"/>
    </contour>
    <contour>
      <point x="177" y="55"/>
      <point x="50" y="119"/>
      <point x="50" y="236" type="curve" smooth="yes"/>
      <point x="50" y="357"/>
      <point x="177" y="421"/>
      <point x="308" y="421" type="curve" smooth="yes"/>
      <point x="438" y="421"/>
      <point x="566" y="357"/>
      <point x="566" y="236" type="curve" smooth="yes"/>
      <point x="566" y="119"/>
      <point x="438" y="55"/>
      <point x="308" y="55" type="curve" smooth="yes"/>
    </contour>
    <contour>
      <point x="321" y="-72" type="line" smooth="yes"/>
      <point x="321" y="547" type="line" smooth="yes"/>
      <point x="296" y="547" type="line" smooth="yes"/>
      <point x="296" y="-72" type="line" smooth="yes"/>
    </contour>
    <contour>
      <point x="434" y="537" type="line" smooth="yes"/>
      <point x="434" y="560" type="line" smooth="yes"/>
      <point x="183" y="560" type="line" smooth="yes"/>
      <point x="183" y="537" type="line" smooth="yes"/>
    </contour>
  </outline>
</glyph>
<glyph name="quotedblright" format="1">
  <advance width="345"/>
  <unicode hex="201D"/>
  <outline>
    <contour>
      <point x="260" y="419"/>
      <point x="290" y="478"/>
      <point x="290" y="521" type="curve" smooth="yes"/>
      <point x="290" y="553"/>
      <point x="271" y="573"/>
      <point x="241" y="573" type="curve" smooth="yes"/>
      <point x="219" y="573"/>
      <point x="201" y="558"/>
      <point x="201" y="539" type="curve" smooth="yes"/>
      <point x="201" y="520"/>
      <point x="219" y="508"/>
      <point x="238" y="508" type="curve" smooth="yes"/>
      <point x="251" y="508"/>
      <point x="258" y="510"/>
      <point x="269" y="513" type="curve"/>
      <point x="265" y="469"/>
      <point x="238" y="428"/>
      <point x="191" y="380" type="curve"/>
      <point x="202" y="368" type="line"/>
    </contour>
    <contour>
      <point x="124" y="419"/>
      <point x="154" y="478"/>
      <point x="154" y="521" type="curve" smooth="yes"/>
      <point x="154" y="553"/>
      <point x="135" y="573"/>
      <point x="105" y="573" type="curve" smooth="yes"/>
      <point x="83" y="573"/>
      <point x="65" y="558"/>
      <point x="65" y="539" type="curve" smooth="yes"/>
      <point x="65" y="520"/>
      <point x="83" y="508"/>
      <point x="102" y="508" type="curve" smooth="yes"/>
      <point x="115" y="508"/>
      <point x="122" y="510"/>
      <point x="133" y="513" type="curve"/>
      <point x="129" y="469"/>
      <point x="102" y="428"/>
      <point x="55" y="380" type="curve"/>
      <point x="66" y="368" type="line"/>
    </contour>
  </outline>
</glyph>
<glyph name="guilsinglright" format="1">
  <advance width="249"/>
  <unicode hex="203A"/>
  <outline>
    <contour>
      <point x="59" y="176"/>
      <point x="162" y="253"/>
      <point x="257" y="253" type="curve" smooth="yes"/>
      <point x="269" y="253" type="line"/>
      <point x="269" y="276" type="line"/>
      <point x="257" y="276" type="line" smooth="yes"/>
      <point x="162" y="276"/>
      <point x="59" y="353"/>
      <point x="40" y="462" type="curve"/>
      <point x="20" y="458" type="line"/>
      <point x="36" y="344"/>
      <point x="145" y="261"/>
      <point x="238" y="261" type="curve"/>
      <point x="238" y="268" type="line"/>
      <point x="145" y="268"/>
      <point x="36" y="185"/>
      <point x="20" y="71" type="curve"/>
      <point x="40" y="67" type="line"/>
    </contour>
  </outline>
</glyph>
<glyph name="fraction" format="1">
  <advance width="145"/>
  <unicode hex="2044"/>
  <outline>
    <contour>
      <point x="-80" y="-55" type="line"/>
      <point x="-55" y="-67" type="line"/>
      <point x="76" y="241" type="line"/>
      <point x="215" y="545" type="line"/>
      <point x="190" y="557" type="line"/>
      <point x="59" y="248" type="line"/>
    </contour>
  </outline>
</glyph>
<glyph name="A.alt" format="1">
  <advance width="673"/>
  <outline>
    <contour>
      <point x="333" y="530" type="line"/>
      <point x="100" y="13" type="line"/>
      <point x="125" y="13" type="line"/>
      <point x="341" y="496" type="line"/>
      <point x="331" y="496" type="line"/>
      <point x="547" y="13" type="line"/>
      <point x="574" y="13" type="line"/>
      <point x="339" y="530" type="line"/>
    </contour>
    <contour>
      <point x="673" y="0" type="line"/>
      <point x="673" y="23" type="line"/>
      <point x="426" y="23" type="line"/>
      <point x="426" y="0" type="line"/>
    </contour>
    <contour>
      <point x="247" y="0" type="line"/>
      <point x="247" y="23" type="line"/>
      <point x="0" y="23" type="line"/>
      <point x="0" y="0" type="line"/>
    </contour>
    <contour>
      <point x="466" y="205" type="line"/>
      <point x="204" y="205" type="line"/>
      <point x="187" y="182" type="line"/>
      <point x="483" y="182" type="line"/>
    </contour>
    <contour>
      <point x="644" y="10" type="move" name="ogonek"/>
    </contour>
    <contour>
      <point x="337" y="0" type="move" name="bottom"/>
    </contour>
    <contour>
      <point x="337" y="530" type="move" name="top"/>
    </contour>
  </outline>
</glyph>
<glyph name="a.alt" format="1">
  <advance width="464"/>
  <outline>
    <contour>
      <point x="434" y="-5"/>
      <point x="459" y="26"/>
      <point x="459" y="68" type="curve" smooth="yes"/>
      <point x="459" y="87" type="line"/>
      <point x="436" y="87" type="line"/>
      <point x="436" y="68" type="line" smooth="yes"/>
      <point x="436" y="39"/>
      <point x="422" y="18"/>
      <point x="396" y="18" type="curve" smooth="yes"/>
      <point x="371" y="18"/>
      <point x="355" y="37"/>
      <point x="355" y="70" type="curve" smooth="yes"/>
      <point x="355" y="233" type="line" smooth="yes"/>
      <point x="355" y="333"/>
      <point x="294" y="367"/>
      <point x="224" y="367" type="curve" smooth="yes"/>
      <point x="166" y="367"/>
      <point x="112" y="350"/>
      <point x="65" y="329" type="curve"/>
      <point x="72" y="306" type="line"/>
      <point x="118" y="327"/>
      <point x="166" y="343"/>
      <point x="224" y="343" type="curve" smooth="yes"/>
      <point x="281" y="343"/>
      <point x="331" y="317"/>
      <point x="331" y="233" type="curve" smooth="yes"/>
      <point x="331" y="70" type="line" smooth="yes"/>
      <point x="331" y="26"/>
      <point x="357" y="-5"/>
      <point x="396" y="-5" type="curve" smooth="yes"/>
    </contour>
    <contour>
      <point x="229" y="-10"/>
      <point x="291" y="25"/>
      <point x="346" y="67" type="curve"/>
      <point x="346" y="90" type="line"/>
      <point x="291" y="46"/>
      <point x="232" y="13"/>
      <point x="175" y="13" type="curve" smooth="yes"/>
      <point x="120" y="13"/>
      <point x="70" y="43"/>
      <point x="70" y="100" type="curve" smooth="yes"/>
      <point x="70" y="161"/>
      <point x="130" y="191"/>
      <point x="194" y="190" type="curve" smooth="yes"/>
      <point x="245" y="189"/>
      <point x="291" y="180"/>
      <point x="346" y="160" type="curve"/>
      <point x="346" y="183" type="line"/>
      <point x="295" y="201"/>
      <point x="250" y="213"/>
      <point x="194" y="213" type="curve" smooth="yes"/>
      <point x="107" y="213"/>
      <point x="45" y="168"/>
      <point x="45" y="100" type="curve" smooth="yes"/>
      <point x="45" y="29"/>
      <point x="106" y="-10"/>
      <point x="175" y="-10" type="curve" smooth="yes"/>
    </contour>
    <contour>
      <point x="411" y="-13" type="move" name="ogonek"/>
    </contour>
    <contour>
      <point x="170" y="-10" type="move" name="bottom"/>
    </contour>
    <contour>
      <point x="210" y="377" type="move" name="top"/>
    </contour>
  </outline>
</glyph>
<glyph name="four.dnom" format="1">
  <advance width="307"/>
  <outline>
    <contour>
      <point x="209" y="277" type="line"/>
      <point x="183" y="277" type="line"/>
      <point x="15" y="80" type="line"/>
      <point x="35" y="75" type="line"/>
    </contour>
    <contour>
      <point x="277" y="62" type="line"/>
      <point x="277" y="80" type="line"/>
      <point x="15" y="80" type="line"/>
      <point x="15" y="62" type="line"/>
    </contour>
    <contour>
      <point x="191" y="-11" type="line"/>
      <point x="214" y="-11" type="line"/>
      <point x="214" y="277" type="line"/>
      <point x="191" y="277" type="line"/>
    </contour>
  </outline>
</glyph>
